<?xml version="1.0" encoding="UTF-8"?>
<svg xmlns="http://www.w3.org/2000/svg" version="1.1" viewBox="0 0 325.78 391.91">
  <defs>
    <style>
      .cls-1 {
        fill: #561c24;
      }
    </style>
  </defs>
  <!-- Generator: Adobe Illustrator 28.6.0, SVG Export Plug-In . SVG Version: 1.2.0 Build 709)  -->
  <g>
    <g id="Layer_1">
      <g>
        <path class="cls-1" d="M152.38,108.36c-.06.04-.11.1-.17.1-1.17-.02-1.89.74-2.49,1.56-.51.69-1.06,1.34-1.47,2.11-.43.8-.88,1.59-1.29,2.39-.42.81-.81,1.63-1.12,2.49-.1.26-.27.52-.08.81.02.03.02.12,0,.14-.61.52-.47,1.37-.86,1.98-.59.93-.97,1.99-1.87,2.72-.3.25-.48.66-.99.56.39-.55.67-1.13.81-1.79.08-.39.42-.72.6-1.1.17-.35.25-.73.39-1.09.04-.1.07-.18-.03-.27-.71-.68-.44-1.48-.24-2.25.12-.45.21-.92.43-1.33.23-.43-.06-.78-.18-1.14-.1-.28-.28-.54-.39-.82-.33-.83-1.05-1.13-1.82-1.41-1.11-.4-2.24-.7-3.41-.81-.17-.02-.35-.1-.59-.27.13-.15.66.04.4-.44-.03-.05.04-.13.12-.13.63-.04.86-.58,1.13-.99.77-1.17,1.45-2.39,2.09-3.64.46-.9.88-1.81,1.26-2.75.11-.26-.04-.48-.11-.71-.36-1.1-.41-2.2-.13-3.33.1-.42.51-.61.67-.97.05-.1.2-.04.32.01.45.2.77.58,1.17.84.43.28.45.55.36,1.02-.15.78-.33,1.54-.59,2.29-.16.47.14.87.31,1.24.38.82.76,1.65,1.32,2.37,1.04,1.34,2.37,1.95,4.09,1.58.42-.09.86-.17,1.29-.19.38-.02.73.24.9.62.05.11.09.21.19.28v.31ZM144.7,113.89c.2-.26.27-.48.33-.74.07-.32-.06-.77.32-.94.28-.12.43-.31.6-.53.28-.36.6-.71.9-1.05.53-.59.92-1.32,1.69-1.74-.22-.12-.36-.2-.52-.29.3-.17.66.2.91-.19-2.46-.39-4.05-1.95-5.43-3.91-.99,2.17-2.13,4.2-3.73,6.03,2.03.61,3.67,1.67,4.92,3.35Z"/>
        <path class="cls-1" d="M213.2,144.67c.15.03.3.05.45.09.46.13,1.14.22,1.06.79-.09.55-.76.27-1.17.28-1.39.05-2.58.81-3.91,1.04-3.88.67-7.32,2.24-10.4,4.72-1.08.87-2.46,1.35-3.5,2.33-1.76,1.66-3.26,3.48-4.47,5.62-1.25,2.23-2.1,4.58-2.91,6.97-.66,1.92-.54,4.02-1.23,5.9-.79,2.13-.61,4.37-1.18,6.52-.64,2.42-1.09,4.89-1.57,7.34-.14.72.09,1.43.51,2.04.28.41.51.87.09,1.21-.47.37-1.06.89-1.7.46-.95-.64-2-.82-3.09-.97-.5-.07-.89-.53-1.48-.55-.27,0-.03-.41,0-.62.04-.53.34-.99.51-1.48.84-2.5-.17-4.89-.33-7.32-.15-2.29-.61-4.56-.92-6.85-.33-2.45-.7-4.87-1.42-7.26-.82-2.69-1.77-5.3-2.99-7.83-.85-1.78-1.88-3.45-3.3-4.73-2.65-2.38-5.63-4.23-9.44-3.8-3.35.37-6.74.69-9.93,1.86-.92.34-2.09,0-2.77,1-.02.04-.23-.01-.33-.07-.96-.56-2.01-.39-3.01-.3-.82.07-.96-.52-1.14-.93-.21-.48.37-.63.72-.8.43-.2.99-.21,1.02-.88,0-.2.23-.27.38-.23.79.22,1.49-.48,2.06-.41,2.49.28,4.32-1.93,6.77-1.6,1.38-1.19,3.53-1.19,4.54-2.99.43-.77.97-1.44,1.99-1.58.57-.08.81-.76,1.21-1.16,2.17-2.13,4.41-4.23,6.13-6.73,2.12-3.07,3.75-6.44,5.01-9.97,1.27-3.54,2.56-7.07,3.63-10.67.71-2.38,3.01-3.42,5.28-2.83.83.22.97.05,1.06-.72.14-1.13.39-2.24.45-3.39.07-1.36.72-2.55,1.51-3.58.63-.82,1.61-.28,2.35.02.51.21.99.6.73,1.44-.51,1.65-.66,3.35-.68,5.1-.04,2.45.46,4.79.94,7.15.44,2.17,1.32,4.22,1.7,6.43.18,1.05.86,2.05,1.16,3.12.64,2.34,2.01,4.32,3.23,6.35,2.09,3.49,4.84,6.42,8.51,8.34,1.78.93,3.8,1.16,5.76,1.46,3.33.51,6.54-.1,9.69-1.19.9-.31,1.73-.73,2.44-1.37.29-.27.59-.43.99-.36.27.04.46.19.53.44.07.25-.17.31-.32.44-1.6,1.37-3.49,2.19-5.45,2.91-1.27.47-2.43,1.2-3.77,1.5.02.09.03.18.05.27ZM162.49,145.45c2.9.13,5.65.5,8.1,2.08,1.09.7,2.43,1.13,3.33,2.02,1.74,1.71,3.11,3.77,4.24,5.94.5.97,1.26,1.9,1.5,2.89.52,2.12,1.45,4.14,1.59,6.36.06.84.48,1.69.41,2.51-.17,2.14.12,4.22.37,6.57.65-1.11.89-2.11,1.22-3.03,1.12-3.17,2.17-6.34,3.68-9.38,1.66-3.34,3.56-6.4,6.14-9.12,2.08-2.19,4.54-3.75,7.06-5.29,1.46-.89,3.02-1.55,4.79-1.95-.84-.53-1.68-.41-2.43-.66-.97-.33-1.52-1.3-2.39-1.61-2.33-.84-4.2-2.32-5.86-4.04-.85-.88-2.24-1.34-2.47-2.79-.01-.08-.2-.13-.28-.22-.96-1.22-1.77-2.55-2.83-3.71-.78-.86-1.23-1.96-1.73-3.01-.37-.77-.7-1.65-1.79-1.77-.39-.04-.5-.42-.66-.77-.34-.78-.48-1.69-1.24-2.39-.29.61-.54,1.12-.78,1.63-1.34,2.84-2.26,5.89-4.18,8.44-1.07,1.42-1.84,3.07-3.29,4.18-1.24.94-2.73,1.55-3.78,2.76-.2.23-.58.28-.86.44-1.34.77-2.7,1.51-4.01,2.32-.99.61-1.97,1.19-3.2,1.05-.33-.04-.55.08-.66.57Z"/>
        <path class="cls-1" d="M118.18,176.02c0,1.41.2,2.4.79,3.24.4.57.39,1.22.35,1.79-.36,5.64.88,11.05,2.04,16.51.78,3.67,1.95,7.13,3.53,10.5,1.34,2.86,3.16,5.51,4.24,8.46.59,1.61,1.88,2.64,2.48,4.16.37.94,1.31,1.46,1.92,2.24,1.79,2.28,4.21,3.51,7.07,3.56,1.02.02,2.1-.18,3.16-.25,3.05-.2,6.1-.5,9.11-1.05,1.32-.24,2.71-.47,3-2.2.12-.71.8-.89,1.35-1.15,1.61-.77,3.21-1.59,4.38-2.98.27-.32.52-.25.84-.32,2.32-.52,4.72-.75,6.66-2.45,1.26-1.1,3.17-.58,4.63-1.36.14-.08.45.05.62.16.32.2.46,2.74.13,2.97-3.58,2.53-6.6,5.8-10.52,7.88-1.23.65-2.47,1.27-3.76,1.83-1.37.6-1.99,2.19-2.91,3.37-1.77,2.27-3.07,4.83-4.27,7.42-.94,2.03-1.98,4.01-2.45,6.29-.31,1.53-.88,3.1-1.39,4.63-1.39,4.19-2.46,8.47-3.54,12.75-.91,3.61-1.88,7.22-2.36,10.9-.34,2.61-1.35,5.33-.18,7.98,1.42,3.23,2.41,6.6,3.51,9.94.73,2.24,1.39,4.42,1.77,6.74.44,2.7-1.14,4.32-3.71,3.53-1.8-.55-3.61-1.09-5.4-1.7-1.05-.36-2.03-.77-1.25-2.3.33-.65.17-1.52-.12-2.31-1.67-4.58-2.97-9.27-4.3-13.95-.61-2.15-1.65-4.17-2.5-6.25-1.68-4.1-4.31-7.59-6.83-11.18-2.5-3.56-5.26-6.86-8.2-10.04-2.64-2.86-6.08-4.08-9.72-4.3-1.79-.11-3.77.39-5.65.72-3.03.53-6.12.79-9.11,1.47-2.11.48-4.3.73-6.3,1.63-1.19.54-2.37.1-3.44-.2-1.43-.4-1.66-2.03-.54-2.99.72-.62,1.46-1.31,2.44-1.45,1.89-.28,3.54-1.28,5.35-1.79.69-.2,1.57-.2,1.86-1.2.2-.69.87-.39,1.32-.3,4.4.92,8.28-.4,11.97-2.67,1.33-.82,2.74-1.53,3.91-2.58,3.01-2.67,4.57-6.19,5.84-9.91,1.69-4.98,1.95-10.15,2.37-15.31.26-3.21.37-6.42.36-9.64,0-1.49-.3-2.9-.72-4.31-2.05-7.02-1.96-13.99.63-20.86.42-1.12.38-2.44,1.52-3.67ZM109.06,244.92c1.7.91,3.45,1.05,4.98,1.88,3.1,1.68,5.77,3.81,8.14,6.36,1.87,2.01,3.61,4.12,5.53,6.08,2.55,2.62,4.79,5.49,7.11,8.29.77.93,1.48,1.92,2.62,2.79,1.36-14.82,6.89-27.87,14.93-40.18-2.53-.14-4.85.3-7.21.07-2.78-.27-5.59-.11-8.29-1.06-.56-.2-1.15-.6-1.79-.35-1.21.48-2.16-.13-3.13-.68-1.07-.6-1.96-1.52-3.17-1.9-.72-.22-1.11-.68-1.62-1.25-1.76-1.97-2.57-4.4-3.78-6.65-.62-1.16-1.01-2.48-2.3-3.74-1.69,11.16-4.11,21.79-12.05,30.33Z"/>
        <path class="cls-1" d="M220.29,266.21c-1.22.65-2.49,1.12-3.92.86-.32-.06-.6.11-.82.27-1.67,1.21-3.29,2.41-4.34,4.33-1.09,2-2.27,3.95-3.32,5.97-1.44,2.77-2.65,5.68-3.45,8.67-.34,1.29-.66,2.78-.43,4.23.17,1.02.07,2.05-.05,3.06-.04.3.38,1.31-.71.73-.03-.02-.39.19-.33.55.1.58-.11,1.12-.63,1.51-.29-.32-.06-.73-.12-1.33-.83,1.9-2.41,1.71-3.8,1.52-1.78-.25-2.33-1.11-2.34-2.93,0-.08.04-.17.02-.25-.63-3.04.22-5.85,1.48-8.54.36-.77,0-1.71.7-2.35.05-.05-.1-.4-.23-.53-.95-.93-1.81-1.92-3.29-2.11-1.1-.14-2.14-.66-3.19-1.03-2.59-.91-5.18-.58-7.79-.42-.43.03-.64.37-.99.49-1.62.59-3.12.06-4.62-.43-.24-.08-.41-.2-.39-.54.02-.35.27-.41.48-.48.51-.16,1.03-.35,1.56-.4,3.04-.3,5.05-2.17,6.8-4.43,1.93-2.51,3.39-5.28,4.67-8.18.92-2.08,1.94-4.13,2.62-6.28,1.13-3.55,2.57-7.02,3.17-10.73.12-.78.22-1.58.25-2.34.04-.93.72-1.11,1.18-1.11.44,0,.71.64.77,1.23.12,1.1-.27,2.13-.44,3.17-.29,1.8.27,3.41.73,5.05.46,1.66,1.07,3.28,1.79,4.85.82,1.76,1.95,3.24,3.67,4.27,2.74,1.64,5.68,2.53,8.85,2.34,1.33-.08,2.66-.13,3.98-.23,1.19-.09,2.05.22,2.47,1.54ZM185.82,275.9c2.76-.1,5.21.88,7.74,1.5.87.21,1.73.42,2.13,1.36,1.39-.29,2.25.82,3.32,1.33.86.41,1.42.32,2.04-.3-.22-.13-.36-.04-.51.03-.24.1-.49.47-.74.08-.24-.37.16-.52.35-.67.28-.23.74-.33.84-.71.33-1.34,1.8-1.91,2.14-3.24.26-1.03,1.57-1.37,1.74-2.47.06-.37.2-.76.54-.72.63.07.12.49.11.75-.02.47.45.56.65.85.09.13.42-.12.45-.31.05-.26.54-.6.19-.74-1.03-.42-.31-.63.03-.95.48-.45.91-.88,1.65-.99.6-.09,1.22-.37,1.57-1.08.26-.52.87-1.25,1.29-1.23,1.12.06,1.59-.9,2.59-1.12-4.03.11-7.61-.85-10.98-2.81-3.61-2.09-4.98-5.54-5.83-9.37-.5,1.06-.89,2.02-1.18,3-.95,3.18-2.19,6.25-3.59,9.26-.38.81-1.09,1.43-1.43,2.3-.63,1.57-2.05,2.61-2.79,4.12-1.38.02-1.21,1.74-2.33,2.13Z"/>
        <path class="cls-1" d="M93.67,174.97c.61-.71.44-1.52.5-2.3.04-.57.03-1.25.33-1.68,1-1.46,1.05-3.2,1.48-4.81.57-2.14,1.04-4.4.73-6.58-.28-1.98.12-3.96-.36-5.92-.25-1.03-.52-2.06-.8-3.07-.17-.62-.49-1.17-.53-1.87-.06-1.01-.94-1.46-1.76-1.82-2.65-1.17-5.46-1.52-8.34-1.44-.36,0-.72,0-1.08,0-.58,0-1.44.02-1.43-.59.02-.65-.09-1.58.75-2.02.35-.18.72-.38,1.1-.46,2.23-.5,3.7-1.98,5.05-3.71,2.61-3.35,4.25-7.2,5.87-11.06.98-2.33,1.66-4.77,2.82-7.03.38-.73.53-1.6.72-2.41.09-.37.14-.77.54-.83.4-.06.84.16,1.03.5.32.56.82.95,1.19,1.44.5.67.71,1.2.14,2.11-.88,1.4-.7,3.1-.49,4.71.23,1.74.97,3.29,1.74,4.84.36.71.96,1.16,1.56,1.63,1.81,1.42,3.83,2.42,6.12,2.75,1.25.18,2.47-.14,3.68-.5.99-.3,1.96-.74,3.06-.57.47.07.9.11,1.01.68.11.58-.17,1.06-.63,1.22-1.27.42-1.69,1.38-2.12,2.52-.36.96-1.09,1.75-2.11,2.24-.9.43-1.5,1.27-2.16,1.99-4.01,4.38-6.64,9.52-8.19,15.22-.39,1.43-1.46,2.48-1.89,3.94-.8,2.67-1.94,5.25-3.18,7.76-1.25,2.54-2.75,4.32-4.34,5.13ZM101.6,151.81c.34.06.34-.15.43-.3,1.72-2.94,2.49-6.33,4.48-9.16.89-1.27,1.99-2.35,2.99-3.61-3.94-2.82-9.01-4.13-11.11-9.24-2.25,5.01-4.63,9.68-8.58,13.59,1.29.12,2.26.6,3.48.55,1.74-.08,3.07,1.19,4.45,2.15,2.13,1.48,4,3.12,3.86,6.01Z"/>
        <path class="cls-1" d="M220.76,203.12c1.22.91,2.04,1.91,1.52,3.22-.43,1.09-.12,2.22-.14,3.33-.02,1.77.1,3.54.71,5.23,1.07,2.96,2.52,4.16,5.56,4.68.28.05.54-.05.78-.13,1.31-.4,2.37.03,3.31.94.17.17.22.38.15.6-.07.24-.28.36-.5.35-.34-.02-.68-.09-1.01-.17-.9-.22-1.69.04-2.57.31-2.62.82-4.05,2.95-5.79,4.78-1.29,1.35-2.43,2.83-3.62,4.27-.21.26-.34.52-.41.84-.16.79-.43,1.56-.57,2.36-.1.56-.65,1-.83,1.47-.25.66-.76,1.09-1.05,1.68-.33.68-.98,1.07-1.43,1.64-.08.1-.2.2-.31.11-.16-.14,0-.24.07-.36.56-.87,1.11-1.75,1.67-2.63.07-.1.1-.22.03-.34-.05.01-.12.01-.13.04-.11.21-.23.55-.51.36-.26-.17.1-.36.16-.55.05-.17.32-.28.16-.51-.18-.25-.39-.06-.59-.02-.83.15-.88.08-.81-.83.02-.29.06-.6-.19-.82.96-.46,1.41-1.37,2.1-2.04.92-.88.91-1.95.66-3.04-.12-.52-.26-1.1-.83-1.4-.16-.09-.32-.24-.41-.4-.99-1.81-2.69-2.68-4.49-3.42-.37-.15-.8-.14-1.15-.01-.64.23-1.27.11-1.9.05-.28-.03-.56-.06-.42-.52.03-.11.41-.54-.09-.69,0,0,0-.08,0-.12.49.09.59-.57,1.03-.56,1.1.04,1.97-.52,2.79-1.11,2.13-1.52,3.77-3.54,5.49-5.49,1.86-2.12,2.9-4.6,3.65-7.25.25-.9-.08-1.79-.05-2.68.01-.36-.03-.71-.05-1.18ZM221.05,210.64c-2.04,4.04-4.85,7.45-8.51,10.13,1.5.89,2.85,1.82,3.69,3.24.81,1.37,2.02,2.47,2.57,3.97,2.63-2.71,4.83-5.86,8.36-7.64-3.95-.99-6.2-6.11-6.12-9.7Z"/>
      </g>
    </g>
  </g>
</svg>